<svg width="18" height="18" viewBox="0 0 18 18" fill="none" xmlns="http://www.w3.org/2000/svg">
<path d="M2.77369 8.19119V11.5076H4.73842V9.92871H6.45963C8.82018 9.92871 10.4063 8.39318 10.4063 6.10766C10.4063 3.69216 8.91017 2.25 6.40397 2.25H2.77369V6.19005H4.73842V4.02398H6.38557C7.73059 4.02398 8.44152 4.74453 8.44152 6.10751C8.44152 7.47049 7.73059 8.19104 6.38557 8.19104H2.87079" fill="currentColor"/>
<path d="M3.7583 12.2035C3.08169 12.2035 2.53125 12.7467 2.53125 13.4143C2.53125 14.0819 3.08169 14.625 3.7583 14.625C4.43491 14.625 4.98535 14.0819 4.98535 13.4143C4.98535 12.7467 4.43491 12.2035 3.7583 12.2035Z" fill="currentColor"/>
<path d="M10.8837 16.6094L8.00781 13.7266L9.14198 12.5897L10.8837 14.295L14.3268 10.8438L15.4609 12.0212L10.8837 16.6094Z" fill="currentColor"/>
</svg>
